<svg width="648" height="175" viewBox="0 0 648 175" fill="none" xmlns="http://www.w3.org/2000/svg">
<path d="M98.7833 137.465C97.9952 137.465 97.2279 137.197 96.5947 136.699C95.9615 136.201 95.4959 135.5 95.2668 134.699C94.9976 133.72 95.1004 132.668 95.5533 131.769C96.0061 130.869 96.7729 130.194 97.6892 129.887C110.505 125.96 120.924 118.272 124.883 109.892C125.782 108.23 126.335 106.383 126.505 104.475C126.676 102.567 126.461 100.642 125.873 98.8299C124.857 96.0644 121.81 92.5244 113.11 92.5244C110.599 92.5222 108.094 92.7909 105.634 93.3264C105.366 93.3582 105.095 93.3582 104.826 93.3264C103.937 93.299 103.087 92.9297 102.435 92.2872C101.783 91.6447 101.373 90.7727 101.28 89.8332C101.188 88.8937 101.42 87.9506 101.933 87.179C102.447 86.4074 103.206 85.8599 104.071 85.6381C107.013 84.9408 110.017 84.5883 113.032 84.5872C120.195 84.5872 129.442 86.5784 132.802 96.009C133.753 98.8208 134.134 101.814 133.918 104.793C133.703 107.772 132.896 110.669 131.552 113.294C126.55 123.886 114.985 132.653 99.8252 137.299C99.4871 137.407 99.1362 137.463 98.7833 137.465Z" fill="#0DC1E9"/>
<path d="M113.057 87.3528C119.413 87.3528 127.566 89.0122 130.379 96.977C131.191 99.4372 131.504 102.052 131.297 104.649C131.091 107.247 130.37 109.768 129.181 112.049C124.519 121.95 113.552 130.192 99.0697 134.644H98.7832C98.5521 134.641 98.3281 134.559 98.145 134.409C97.9618 134.259 97.8293 134.051 97.7673 133.814C97.7275 133.671 97.7147 133.521 97.7299 133.372C97.745 133.223 97.7877 133.079 97.8555 132.948C97.9233 132.817 98.0148 132.701 98.1249 132.608C98.2349 132.515 98.3612 132.445 98.4966 132.404C112.198 128.2 122.956 120.18 127.306 110.971C128.365 108.972 129.01 106.757 129.199 104.473C129.388 102.188 129.115 99.8874 128.4 97.7237C127.097 94.0178 123.399 89.6206 113.214 89.6206C110.519 89.6173 107.831 89.9045 105.191 90.4779H104.957C104.714 90.4779 104.479 90.3903 104.289 90.2295C104.1 90.0686 103.968 89.8441 103.915 89.5929C103.852 89.3034 103.898 88.9992 104.044 88.7457C104.191 88.4923 104.425 88.3099 104.696 88.2378C107.449 87.5802 110.262 87.2463 113.084 87.2422M113.084 81.7111C109.867 81.7122 106.661 82.0925 103.524 82.8449C102.72 83.0411 101.96 83.4034 101.288 83.9112C100.616 84.419 100.045 85.0623 99.6075 85.8045C99.1697 86.5467 98.8739 87.3731 98.7369 88.2367C98.5999 89.1002 98.6245 89.984 98.8092 90.8374C99.1823 92.5611 100.185 94.0568 101.597 94.9956C102.296 95.4604 103.074 95.7745 103.888 95.9199C104.701 96.0653 105.533 96.0392 106.337 95.8431C108.639 95.3904 110.978 95.1866 113.318 95.2347C117.616 95.2347 122.357 96.1473 123.737 99.7702C124.187 101.223 124.341 102.761 124.188 104.282C124.036 105.804 123.58 107.273 122.852 108.592C119.205 116.336 109.411 123.444 97.2724 127.177C95.6731 127.668 94.3232 128.814 93.5196 130.362C92.716 131.911 92.5246 133.734 92.9875 135.432C93.4503 137.13 94.5295 138.563 95.9877 139.417C97.4459 140.27 99.1635 140.473 100.763 139.982C116.626 135.114 128.764 125.85 134.078 114.566C135.577 111.624 136.477 108.38 136.72 105.045C136.962 101.71 136.541 98.3584 135.485 95.207C131.838 84.9191 122.018 81.9876 113.266 81.9876L113.084 81.7111Z" fill="#5C2D51"/>
<path d="M35.1735 158.234C33.193 158.227 31.2954 157.389 29.8949 155.902C28.4944 154.415 27.7046 152.4 27.6978 150.297V66.6388H103.237V150.297C103.237 152.405 102.45 154.427 101.049 155.92C99.6478 157.412 97.7464 158.255 95.7613 158.262L35.1735 158.234Z" fill="#0DC1E9"/>
<path d="M100.607 69.4043V150.297C100.607 151.671 100.094 152.99 99.1814 153.964C98.2687 154.938 97.0298 155.489 95.7355 155.496H35.1739C33.8841 155.489 32.6491 154.942 31.7371 153.974C30.8251 153.005 30.3097 151.694 30.3029 150.325V69.4043H100.633M105.842 63.8731H25.0933V150.297C25.1001 153.133 26.1644 155.852 28.0534 157.857C29.9424 159.863 32.5024 160.993 35.1739 161H95.7355C97.0615 161.004 98.3752 160.729 99.6012 160.193C100.827 159.657 101.942 158.869 102.88 157.875C103.819 156.881 104.564 155.7 105.072 154.399C105.581 153.099 105.842 151.705 105.842 150.297V63.8731Z" fill="#5C2D51"/>
<path d="M46.6609 91.1693H45.9576C43.0142 90.9204 42.5193 89.2887 41.7378 85.9424C41.1387 83.3981 40.1489 79.1391 35.7468 79.1391H35.4863C32.7563 79.4648 30.1667 80.5952 28.0105 82.4025C26.8577 83.4172 25.4901 84.1195 24.0251 84.449C23.5076 84.4317 23.0111 84.2267 22.6186 83.8682C19.7793 81.6558 19.1802 72.4188 19.6751 66.5834C19.6545 64.3769 20.0452 62.1878 20.8246 60.1423C21.6041 58.0967 22.757 56.2351 24.2169 54.6645C25.6768 53.0939 27.4149 51.8455 29.3311 50.991C31.2473 50.1365 33.3038 49.6929 35.3821 49.6858H96.8555C98.9079 49.6858 100.94 50.115 102.836 50.9489C104.733 51.7828 106.455 53.005 107.907 54.5459C109.358 56.0867 110.509 57.9159 111.295 59.9292C112.08 61.9424 112.484 64.1001 112.484 66.2792C112.771 71.0913 112.172 79.4986 109.306 82.2918C106.675 84.9132 103.199 86.3676 99.5905 86.3572C98.5855 86.3503 97.583 86.2485 96.595 86.053C94.5007 85.5596 92.6482 84.2713 91.3854 82.4301C90.575 81.2253 89.5198 80.2294 88.2979 79.5161C87.076 78.8028 85.7187 78.3904 84.3263 78.3094H83.7793C80.6015 78.5307 79.2209 81.6558 77.9967 84.4213C76.3296 88.2102 75.0793 90.5056 72.0056 90.5056C68.932 90.5056 68.385 88.9016 66.9523 85.3616C65.8322 82.5961 64.3475 78.9178 60.3101 78.9178C56.2726 78.9178 54.9181 82.3195 53.4073 85.168C51.4537 88.9292 50.0211 91.1693 46.6609 91.1693Z" fill="#FDCA89"/>
<path d="M96.8556 52.4513C100.31 52.4513 103.622 53.9082 106.065 56.5014C108.507 59.0946 109.88 62.6118 109.88 66.2792V66.6387C110.192 71.6997 109.28 78.5306 107.535 80.2453C105.428 82.3785 102.632 83.5757 99.7209 83.5916C98.8473 83.5928 97.9754 83.5095 97.1161 83.3427C95.5271 83.0385 94.7717 82.2365 93.3391 80.5772C92.2888 79.0827 90.9364 77.8572 89.3812 76.9909C87.826 76.1246 86.1076 75.6396 84.3525 75.5715H83.6492C78.9345 75.8757 76.9549 80.3283 75.6525 83.2598C73.9333 87.1592 73.2821 87.74 71.9276 87.74C71.0941 87.74 70.7815 87.74 69.3228 84.2554C68.1506 81.4898 65.9886 76.1522 60.2841 76.1522H59.9976C54.9964 76.3182 52.6521 80.7984 51.0892 83.7576C49.1356 87.657 48.3802 88.4037 46.661 88.4037H46.1661C45.02 88.4037 44.9679 88.4037 44.2646 85.2786C43.5613 82.1535 42.2068 76.3735 35.7469 76.3735H35.3562C32.1478 76.7084 29.0948 78.0031 26.5519 80.107C25.7885 80.6825 24.9877 81.2001 24.1555 81.6557C22.827 80.5772 21.707 73.7462 22.1498 66.8323V66.3345C22.1498 62.6671 23.522 59.1499 25.9644 56.5567C28.4069 53.9635 31.7196 52.5066 35.1738 52.5066H96.6472M96.6472 46.9755H35.3822C30.5463 46.9755 25.9085 49.0151 22.4891 52.6456C19.0696 56.2761 17.1486 61.2001 17.1486 66.3345C17.1486 66.3345 15.8201 81.9323 21.1079 86.0806C21.9518 86.798 22.9964 87.1969 24.0774 87.2145C27.8543 87.2145 31.2406 82.0706 35.6427 81.9046H35.799C41.1909 81.9046 36.9711 93.1329 45.8014 93.9349H46.7131C55.5955 93.9349 55.4392 81.877 60.2841 81.711C65.4937 81.711 63.6964 93.1052 71.7713 93.2988H71.9797C80.3151 93.2988 79.7941 81.3792 83.9357 81.1026H84.3265C89.1714 81.1026 89.5361 87.5464 96.1523 88.8186C97.2954 89.0386 98.4549 89.1497 99.6167 89.1504C103.875 89.1569 107.975 87.4355 111.078 84.3383C115.923 79.6369 115.141 66.2792 115.141 66.2792C115.141 61.1448 113.22 56.2208 109.801 52.5903C106.381 48.9598 101.744 46.9202 96.9077 46.9202L96.6472 46.9755Z" fill="#5C2D51"/>
<path d="M39.3933 104.693H48.6664V144.794H39.3933V104.693Z" fill="white"/>
<path d="M46.0619 107.458V142.028H41.9984V107.458H46.0619ZM47.5467 101.927H40.5137C40.0245 101.927 39.5402 102.03 39.0882 102.228C38.6363 102.427 38.2257 102.718 37.8798 103.086C37.5339 103.453 37.2595 103.889 37.0724 104.369C36.8852 104.849 36.7888 105.363 36.7888 105.882V143.715C36.7888 144.234 36.8852 144.749 37.0724 145.229C37.2595 145.708 37.5339 146.144 37.8798 146.512C38.2257 146.879 38.6363 147.17 39.0882 147.369C39.5402 147.568 40.0245 147.67 40.5137 147.67H47.5206C48.012 147.674 48.4991 147.574 48.9541 147.377C49.409 147.18 49.8227 146.889 50.1713 146.521C50.52 146.154 50.7967 145.717 50.9855 145.235C51.1743 144.753 51.2715 144.237 51.2715 143.715V105.882C51.2715 104.833 50.8791 103.827 50.1805 103.086C49.482 102.344 48.5346 101.927 47.5467 101.927Z" fill="#5C2D51"/>
<path d="M60.8049 104.693H70.078V144.794H60.8049V104.693Z" fill="white"/>
<path d="M67.4735 107.458V142.028H63.41V107.458H67.4735ZM68.9583 101.927H61.9253C60.9374 101.927 59.99 102.344 59.2914 103.086C58.5929 103.827 58.2004 104.833 58.2004 105.882V143.715C58.2004 144.764 58.5929 145.77 59.2914 146.512C59.99 147.253 60.9374 147.67 61.9253 147.67H69.0364C70.0107 147.648 70.9382 147.222 71.6199 146.483C72.3017 145.743 72.6834 144.75 72.6831 143.715V105.882C72.6834 104.847 72.3017 103.854 71.6199 103.115C70.9382 102.375 70.0107 101.949 69.0364 101.927H68.9583Z" fill="#5C2D51"/>
<path d="M82.2168 104.693H91.4899V144.794H82.2168V104.693Z" fill="white"/>
<path d="M88.8847 107.458V142.028H84.8212V107.458H88.8847ZM90.3694 101.927H83.3364C82.3485 101.927 81.4011 102.344 80.7026 103.086C80.004 103.827 79.6116 104.833 79.6116 105.882V143.715C79.6116 144.764 80.004 145.77 80.7026 146.512C81.4011 147.253 82.3485 147.67 83.3364 147.67H90.3434C90.8347 147.674 91.3219 147.574 91.7768 147.377C92.2317 147.18 92.6454 146.889 92.9941 146.521C93.3427 146.154 93.6195 145.717 93.8083 145.235C93.9971 144.753 94.0943 144.237 94.0943 143.715V105.882C94.0943 104.833 93.7018 103.827 93.0033 103.086C92.3047 102.344 91.3573 101.927 90.3694 101.927Z" fill="#5C2D51"/>
<path d="M142.571 50.0085H103.588C103.588 50.0064 103.588 50.0043 103.588 50.0022C103.593 42.9483 112.318 37.2312 123.08 37.2312C133.844 37.2312 142.571 42.9525 142.571 50.0085Z" fill="white"/>
<path d="M103.588 50.0085C111.703 50.0085 118.283 57.5968 118.283 66.9568C118.283 76.3168 111.703 83.9051 103.588 83.9051V50.0085Z" fill="#0DC1E9"/>
<path d="M103.588 50.0022C103.588 50.0043 103.588 50.0064 103.588 50.0085H103.58C95.4682 50.0043 88.8933 42.4181 88.8933 33.0602C88.8933 23.7002 95.473 16.1119 103.588 16.1119V50.0022Z" fill="#0DC1E9"/>
<path d="M103.588 50.0085C103.588 57.0645 94.8608 62.7857 84.0963 62.7857C73.3319 62.7857 64.605 57.0645 64.605 50.0085H103.58H103.588Z" fill="white"/>
<path d="M103.581 52.1205C103.581 52.1205 103.58 52.1205 103.579 52.1205C98.8757 52.1181 94.4988 50.0557 91.2556 46.3132C88.1664 42.7485 86.4651 38.0417 86.4651 33.0604C86.4651 28.0775 88.1675 23.37 91.2587 19.8047C94.5043 16.0615 98.883 14 103.588 14C104.929 14 106.017 14.9457 106.017 16.1119V50.0022C106.017 50.5873 105.743 51.1173 105.301 51.5C104.861 51.8834 104.253 52.1205 103.581 52.1205ZM101.16 18.516C95.5557 19.883 91.3228 25.885 91.3228 33.0602C91.3228 40.2344 95.5563 46.2374 101.16 47.6044V18.516Z" fill="#5C2D51"/>
<path d="M84.0968 64.8976C78.3663 64.8976 72.9524 63.4173 68.8522 60.7294C64.5473 57.9073 62.1765 54.0999 62.1765 50.0085C62.1765 48.8424 63.2642 47.8966 64.6053 47.8966H103.581C104.922 47.8966 106.017 48.8424 106.017 50.0085C106.017 54.0999 103.646 57.9073 99.3412 60.7294C95.2413 63.4175 89.8274 64.8976 84.0968 64.8976ZM67.3703 52.1206C68.9427 56.9933 75.8452 60.6739 84.0968 60.6739C92.3484 60.6739 99.2512 56.9933 100.823 52.1206H67.3703Z" fill="#5C2D51"/>
<path d="M103.588 86.0171C102.247 86.0171 101.159 85.0714 101.159 83.9053C101.159 82.7391 102.247 81.7934 103.588 81.7934C110.351 81.7934 115.854 75.1379 115.854 66.957C115.854 58.7761 110.351 52.1205 103.588 52.1205C102.247 52.1205 101.159 51.1748 101.159 50.0087C101.159 48.8425 102.247 47.8968 103.588 47.8968C108.293 47.8968 112.672 49.9582 115.918 53.7015C119.009 57.2667 120.711 61.9743 120.711 66.9572C120.711 71.9401 119.009 76.6476 115.918 80.2128C112.672 83.9557 108.293 86.0171 103.588 86.0171Z" fill="#5C2D51"/>
<path d="M142.571 52.1206C141.23 52.1206 140.142 51.1748 140.142 50.0087C140.142 44.1278 132.488 39.3435 123.08 39.3435C114.829 39.3435 107.925 43.0247 106.353 47.8968H128.909C130.25 47.8968 131.337 48.8425 131.337 50.0087C131.337 51.1748 130.25 52.1206 128.909 52.1206H103.588C102.247 52.1206 101.159 51.1748 101.159 50.0087C101.162 45.9112 103.534 42.1051 107.838 39.285C111.938 36.5989 117.351 35.1195 123.08 35.1195C128.81 35.1195 134.224 36.5998 138.324 39.2877C142.629 42.1099 145 45.9173 145 50.0087C145 51.1748 143.912 52.1206 142.571 52.1206Z" fill="#5C2D51"/>
<path d="M136.478 52.1205H136.043C134.702 52.1205 133.614 51.1748 133.614 50.0087C133.614 48.8425 134.702 47.8968 136.043 47.8968H136.478C137.819 47.8968 138.907 48.8425 138.907 50.0087C138.907 51.1748 137.819 52.1205 136.478 52.1205Z" fill="#5C2D51"/>
<path d="M103.588 111.783C102.247 111.783 101.159 110.837 101.159 109.671V50.0085C101.159 48.8424 102.247 47.8966 103.588 47.8966C104.929 47.8966 106.017 48.8424 106.017 50.0085V109.671C106.017 110.837 104.929 111.783 103.588 111.783Z" fill="#5C2D51"/>
<path d="M193.836 129.293C192.273 129.098 188.253 129 181.775 129H180.213V74.9961H170.545C167.68 74.9961 165.988 75.1426 165.467 75.4355C164.946 75.7285 164.539 75.9889 164.246 76.2168L164.1 76.168V63.668L164.246 63.5215C165.32 63.8796 168.217 64.0586 172.938 64.0586H203.553C206.417 64.0586 208.11 63.9121 208.631 63.6191C209.152 63.3262 209.559 63.0658 209.852 62.8379L209.998 62.8867V75.3867L209.852 75.5332C208.777 75.1751 205.88 74.9961 201.16 74.9961H193.836V129.293ZM217.713 63.4238C220.317 59.3548 223.035 55.7741 225.867 52.6816L236.365 60.9336C234.965 62.6589 233.663 64.3516 232.459 66.0117C232.459 66.0117 231.206 67.7858 228.699 71.334L217.713 63.4238ZM230.555 123.531C230.555 126.331 230.62 128.154 230.75 129H218.348V77.9746H230.555V123.531ZM244.275 80.2695L244.178 77.9746H285.438L260.535 119.234H279.725C282.589 119.234 284.526 118.827 285.535 118.014L282.312 129.732C280.88 129.635 279.155 129.553 277.137 129.488L271.082 129.195C267.339 129.065 263.807 129 260.486 129C253.13 129 246.277 129.244 239.93 129.732L265.467 87.5449H253.357C249.581 87.5449 246.489 87.9681 244.08 88.8145C244.21 86.2754 244.275 84.306 244.275 82.9062V80.2695ZM291.932 103.902C291.932 100.094 292.583 96.5618 293.885 93.3066C295.187 90.0514 297.026 87.2031 299.402 84.7617C304.48 79.5859 311.121 76.998 319.324 76.998C326.258 76.998 331.824 79.293 336.023 83.8828C340.158 88.3099 342.225 93.8763 342.225 100.582C342.225 103.154 342.029 104.911 341.639 105.855C338.383 106.767 331.759 107.223 321.766 107.223H304.578C305.424 110.706 307.394 113.424 310.486 115.377C313.579 117.298 317.599 118.258 322.547 118.258C327.723 118.258 332.166 117.33 335.877 115.475C336.854 114.986 337.586 114.531 338.074 114.107C338.009 115.475 337.928 116.874 337.83 118.307L337.293 125.924C334.819 127.617 330.815 128.788 325.281 129.439C323.654 129.635 322.091 129.732 320.594 129.732C312.326 129.732 305.49 127.324 300.086 122.506C294.65 117.656 291.932 111.454 291.932 103.902ZM329.236 97.75C327.902 90.7513 324.093 87.252 317.811 87.252C312.863 87.252 309.103 89.3841 306.531 93.6484C305.75 94.9505 305.148 96.3828 304.725 97.9453C305.506 97.9779 306.466 98.0104 307.605 98.043H311.219C312.423 98.0755 313.579 98.0918 314.686 98.0918H317.469C319.129 98.0918 320.757 98.0755 322.352 98.043L326.355 97.8965C327.43 97.8639 328.39 97.8151 329.236 97.75ZM365.711 122.75C365.711 125.615 365.841 127.698 366.102 129H353.846V77.9746H365.711V82.3203C370.008 78.7721 374.598 76.998 379.48 76.998C384.819 76.998 389.083 78.821 392.273 82.4668C395.464 86.0801 397.059 90.849 397.059 96.7734V116.207C397.059 121.708 397.14 125.012 397.303 126.119C397.465 127.226 397.677 127.942 397.938 128.268C398.23 128.593 398.475 128.886 398.67 129.146L398.572 129.342C395.936 129.114 394.015 129 392.811 129H389.393C388.351 129 386.951 129.049 385.193 129.146V102.535C385.193 92.9974 382.296 88.2285 376.502 88.2285C372.205 88.2285 368.608 90.4421 365.711 94.8691V122.75ZM453.602 124.264C451.225 126.152 448.133 127.617 444.324 128.658C440.516 129.7 435.828 130.221 430.262 130.221C424.728 130.221 418.836 129.716 412.586 128.707V64.3516C418.901 63.3424 424.37 62.8379 428.992 62.8379C433.647 62.8379 437.456 63.2773 440.418 64.1562C443.413 65.0352 445.854 66.2233 447.742 67.7207C451.453 70.6178 453.309 74.3776 453.309 79C453.309 83.5898 451.632 87.3984 448.279 90.4258C452.251 91.6628 455.327 94.0065 457.508 97.457C459.493 100.549 460.486 103.984 460.486 107.76C460.486 111.503 459.933 114.71 458.826 117.379C457.752 120.048 456.01 122.343 453.602 124.264ZM425.525 88.6191C426.893 88.847 428.602 88.9609 430.652 88.9609C432.703 88.9609 434.38 88.7005 435.682 88.1797C437.016 87.6263 438.042 86.9427 438.758 86.1289C439.93 84.7943 440.516 82.9388 440.516 80.5625C440.516 75.582 437.586 73.0918 431.727 73.0918C429.253 73.0918 427.186 73.1895 425.525 73.3848V88.6191ZM432.752 99.0684C430.018 99.0684 427.609 99.2474 425.525 99.6055V118.795C427.804 119.381 430.197 119.674 432.703 119.674C435.21 119.674 437.407 119.381 439.295 118.795C441.215 118.176 442.827 117.346 444.129 116.305C446.766 114.156 448.084 111.422 448.084 108.102C448.084 102.079 442.973 99.0684 432.752 99.0684ZM481.385 123.531C481.385 126.331 481.45 128.154 481.58 129H469.422V77.9746H481.385V81.7344C484.152 78.5768 487.049 76.998 490.076 76.998C493.136 76.998 495.545 77.3724 497.303 78.1211L496.424 91.2559L496.229 91.4023C495.089 89.3841 492.729 88.375 489.148 88.375C487.781 88.375 486.382 88.847 484.949 89.791C483.549 90.7025 482.361 91.9232 481.385 93.4531V123.531ZM500.818 103.902C500.818 100.094 501.469 96.5618 502.771 93.3066C504.074 90.0514 505.913 87.2031 508.289 84.7617C513.367 79.5859 520.008 76.998 528.211 76.998C535.145 76.998 540.711 79.293 544.91 83.8828C549.044 88.3099 551.111 93.8763 551.111 100.582C551.111 103.154 550.916 104.911 550.525 105.855C547.27 106.767 540.646 107.223 530.652 107.223H513.465C514.311 110.706 516.281 113.424 519.373 115.377C522.465 117.298 526.486 118.258 531.434 118.258C536.609 118.258 541.053 117.33 544.764 115.475C545.74 114.986 546.473 114.531 546.961 114.107C546.896 115.475 546.814 116.874 546.717 118.307L546.18 125.924C543.706 127.617 539.702 128.788 534.168 129.439C532.54 129.635 530.978 129.732 529.48 129.732C521.212 129.732 514.376 127.324 508.973 122.506C503.536 117.656 500.818 111.454 500.818 103.902ZM538.123 97.75C536.788 90.7513 532.98 87.252 526.697 87.252C521.749 87.252 517.99 89.3841 515.418 93.6484C514.637 94.9505 514.035 96.3828 513.611 97.9453C514.393 97.9779 515.353 98.0104 516.492 98.043H520.105C521.31 98.0755 522.465 98.0918 523.572 98.0918H526.355C528.016 98.0918 529.643 98.0755 531.238 98.043L535.242 97.8965C536.316 97.8639 537.277 97.8151 538.123 97.75ZM554.92 77.9746H568.055L577.137 114.645L586.902 77.9746H598.133L608.24 115.426L617.322 77.9746H629.139L614.1 129H601.453L591.785 95.5527L582.801 129H570.252L554.92 77.9746Z" fill="#EEE8ED"/>
</svg>