<svg width="410" height="117" viewBox="0 0 410 117" fill="none" xmlns="http://www.w3.org/2000/svg">
<rect width="410" height="117" rx="58.5" fill="#3DDCFF" fill-opacity="0.85"/>
<path d="M150.813 56.6299C150.35 57.46 150.118 59.4497 150.118 62.5991V73.9517C150.118 77.394 148.335 80.3848 144.771 82.9238C141.084 85.585 136.568 86.9155 131.221 86.9155C123.799 86.9155 117.879 84.584 113.46 79.9209C109.188 75.4775 107.051 69.8135 107.051 62.9287C107.051 55.6045 109.224 49.501 113.57 44.6182C118.428 39.125 125.118 36.3784 133.638 36.3784C139.327 36.3784 143.831 37.4771 147.151 39.6743L146.565 50.4775L146.272 50.5508C145.418 49.0615 143.733 47.8408 141.219 46.8887C138.826 45.9854 136.312 45.5337 133.675 45.5337C131.062 45.5337 128.768 45.9487 126.79 46.7788C124.837 47.6089 123.177 48.793 121.81 50.3311C118.929 53.4805 117.488 57.6431 117.488 62.8188C117.488 67.3354 118.758 70.9609 121.297 73.6953C123.836 76.4053 127.107 77.7603 131.111 77.7603C135.53 77.7603 138.509 76.6128 140.047 74.3179C140.535 73.5854 140.779 72.7554 140.779 71.8276V65.7485H136.055C133.516 65.7485 132.137 65.9683 131.917 66.4077L131.807 66.3711L131.478 56.813C132.161 57.0083 134.932 57.106 139.791 57.106H144.112C146.797 57.106 148.995 56.9229 150.704 56.5566L150.813 56.6299ZM182.637 82.6675C179.512 85.2554 176.106 86.5493 172.42 86.5493C168.465 86.5493 165.364 85.2188 163.118 82.5576C160.97 79.9697 159.896 76.4175 159.896 71.9009V57.3623C159.896 52.4795 159.786 49.6841 159.566 48.9761C159.371 48.2437 159.224 47.7798 159.126 47.5845C160.25 47.6821 161.421 47.731 162.642 47.731H165.682C166.487 47.731 167.549 47.6943 168.868 47.6211V68.8247C168.868 73.854 170.235 76.7715 172.969 77.5771C173.799 77.8213 174.703 77.9434 175.679 77.9434C178.56 77.9434 180.879 76.8936 182.637 74.7939V47.731H191.719V81.3125C191.719 83.4609 191.817 85.0234 192.012 86H182.637V82.6675ZM202.266 36.8179C204.219 33.7661 206.258 31.0806 208.382 28.7612L216.255 34.9502C215.206 36.2441 214.229 37.5137 213.326 38.7588C213.326 38.7588 212.386 40.0894 210.506 42.7505L202.266 36.8179ZM211.897 81.8984C211.897 83.998 211.946 85.3652 212.044 86H202.742V47.731H211.897V81.8984ZM248.519 83.9492C245.418 85.6826 242.317 86.5493 239.217 86.5493C236.116 86.5493 233.406 86.061 231.087 85.0845C228.768 84.1079 226.79 82.7651 225.154 81.0562C221.785 77.5405 220.101 72.9751 220.101 67.3599C220.101 61.5493 222.054 56.7153 225.96 52.8579C229.891 48.9517 234.92 46.9985 241.048 46.9985C242.928 46.9985 244.771 47.2427 246.578 47.731V31.4346H255.55V70.5825C255.55 73.8296 255.696 75.9536 255.989 76.9546C256.307 77.9556 256.648 78.688 257.015 79.1519C257.405 79.6157 257.894 80.0552 258.479 80.4702L251.595 86.5493C250.325 85.8657 249.3 84.999 248.519 83.9492ZM240.938 78.1265C242.989 78.1265 244.869 77.7358 246.578 76.9546V56.6665C244.869 55.9585 243.013 55.6045 241.011 55.6045C239.009 55.6045 237.288 55.873 235.848 56.4102C234.432 56.9473 233.211 57.6919 232.186 58.644C230.037 60.646 228.963 63.2461 228.963 66.4443C228.963 69.9355 229.939 72.7188 231.893 74.7939C233.992 77.0156 237.007 78.1265 240.938 78.1265ZM264.302 67.1768C264.302 64.3203 264.791 61.6714 265.767 59.23C266.744 56.7886 268.123 54.6523 269.905 52.8213C273.714 48.9395 278.694 46.9985 284.847 46.9985C290.047 46.9985 294.222 48.7197 297.371 52.1621C300.472 55.4824 302.022 59.6572 302.022 64.6865C302.022 66.6152 301.875 67.9336 301.583 68.6416C299.141 69.3252 294.173 69.667 286.678 69.667H273.787C274.422 72.2793 275.899 74.3179 278.218 75.7827C280.538 77.2231 283.553 77.9434 287.264 77.9434C291.146 77.9434 294.478 77.2476 297.261 75.856C297.994 75.4897 298.543 75.1479 298.909 74.8306C298.86 75.856 298.799 76.9058 298.726 77.98L298.323 83.6929C296.468 84.9624 293.465 85.8413 289.314 86.3296C288.094 86.4761 286.922 86.5493 285.799 86.5493C279.598 86.5493 274.471 84.7427 270.418 81.1294C266.341 77.4917 264.302 72.8408 264.302 67.1768ZM292.281 62.5625C291.28 57.3135 288.423 54.689 283.711 54.689C280 54.689 277.181 56.2881 275.252 59.4863C274.666 60.4629 274.214 61.5371 273.897 62.709C274.483 62.7334 275.203 62.7578 276.058 62.7822H278.768C279.671 62.8066 280.538 62.8188 281.368 62.8188H283.455C284.7 62.8188 285.921 62.8066 287.117 62.7822L290.12 62.6724C290.926 62.6479 291.646 62.6113 292.281 62.5625Z" fill="#5C2D51"/>
</svg>
